# File created by Blade
# Date/Time:  Thu Jan 22 19:49:01 2015
# Frame Rate: 120.000 fps
#------------------------------------------------------
:FULLY-SPECIFIED
:DEGREES
1685
root -2.462347 3.328259 -10.764467 -26.495237 6.446206 -0.385089
RightUpLeg -61.955072 -11.266719 4.461926
RightLeg 4.401596 -0.000000 -0.000000
RightFoot 22.895545 -3.391681 10.615791
RightToeBase -14.085494 -0.000000 0.000000
LeftUpLeg -87.598998 -35.055815 -47.852814
LeftLeg 118.647332 -0.000000 -0.000000
LeftFoot 7.729002 13.765090 -6.981238
LeftToeBase -16.735074 -0.000000 0.000000
Spine 45.320270 47.671179 25.845881
RightShoulder 6.797008 12.301448 -20.428074
RightArm 85.394780 -45.543186 9.640271
RightForeArm -5.800801 -0.000000 67.030204
RightHand 13.487088 0.000000 45.111229
RightHandThumb1 -24.326973 -0.000000 -32.862282
LeftShoulder -20.429871 -0.331469 18.841926
LeftArm 10.075795 37.690078 -91.394830
LeftForeArm -5.004026 -0.000000 1.078960
LeftHand -18.860643 -0.000000 56.070375
LeftHandThumb1 -26.253704 0.000000 33.147579
Head -60.606330 64.599948 -55.728758
1686
root -2.462960 3.328235 -10.764951 -26.511966 6.456285 -0.389875
RightUpLeg -61.940460 -11.279496 4.461718
RightLeg 4.406231 -0.000000 -0.000000
RightFoot 22.886869 -3.391009 10.583763
RightToeBase -14.010693 -0.000000 0.000000
LeftUpLeg -87.583969 -35.057602 -47.851411
LeftLeg 118.647645 -0.000000 -0.000000
LeftFoot 7.718123 13.753597 -6.995757
LeftToeBase -16.771746 -0.000000 0.000000
Spine 45.314509 47.647823 25.850603
RightShoulder 6.790514 12.297409 -20.416200
RightArm 85.440451 -45.530516 9.586812
RightForeArm -5.841819 0.000000 67.035204
RightHand 13.479605 0.000000 45.119783
RightHandThumb1 -24.326973 -0.000000 -32.862282
LeftShoulder -20.436672 -0.334798 18.849368
LeftArm 10.048606 37.675296 -91.414925
LeftForeArm -4.955955 -0.000000 1.105495
LeftHand -18.896899 -0.000000 56.047686
LeftHandThumb1 -26.253704 0.000000 33.147579
Head -60.603061 64.558784 -55.709174
1687
root -2.462458 3.327639 -10.765063 -26.533846 6.457365 -0.383336
RightUpLeg -61.924578 -11.281668 4.456353
RightLeg 4.411661 -0.000000 -0.000000
RightFoot 22.897580 -3.410189 10.607264
RightToeBase -14.036831 -0.000000 0.000000
LeftUpLeg -87.572122 -35.053369 -47.854224
LeftLeg 118.647189 -0.000000 -0.000000
LeftFoot 7.713734 13.749638 -6.990729
LeftToeBase -16.792700 -0.000000 0.000000
Spine 45.326834 47.632305 25.859122
RightShoulder 6.783516 12.308441 -20.402748
RightArm 85.491533 -45.520720 9.513301
RightForeArm -5.875851 0.000000 67.077474
RightHand 13.455913 -0.000000 45.077002
RightHandThumb1 -24.326973 -0.000000 -32.862282
LeftShoulder -20.436703 -0.328537 18.859706
LeftArm 10.042390 37.657334 -91.432834
LeftForeArm -4.942872 -0.000000 1.113045
LeftHand -18.945377 -0.000000 56.088390
LeftHandThumb1 -26.253704 0.000000 33.147579
Head -60.636527 64.534642 -55.723502
1688
root -2.462542 3.327513 -10.765612 -26.560569 6.467155 -0.379712
RightUpLeg -61.899658 -11.292038 4.442008
RightLeg 4.416544 -0.000000 -0.000000
RightFoot 22.897435 -3.385688 10.594738
RightToeBase -14.087883 -0.000000 0.000000
LeftUpLeg -87.549107 -35.042410 -47.862885
LeftLeg 118.644134 -0.000000 -0.000000
LeftFoot 7.707144 13.734822 -7.025621
LeftToeBase -16.758929 -0.000000 0.000000
Spine 45.344306 47.599415 25.871213
RightShoulder 6.784945 12.324714 -20.400342
RightArm 85.516976 -45.520162 9.482517
RightForeArm -5.952453 0.000000 67.118473
RightHand 13.469875 -0.000000 45.045132
RightHandThumb1 -24.326973 -0.000000 -32.862282
LeftShoulder -20.433874 -0.329237 18.871361
LeftArm 10.014781 37.653938 -91.454304
LeftForeArm -4.964541 -0.000000 1.141290
LeftHand -18.981172 -0.000000 56.054466
LeftHandThumb1 -26.253704 0.000000 33.147579
Head -60.666355 64.503829 -55.752132
1689
root -2.464535 3.326599 -10.765828 -26.571448 6.466457 -0.374634
RightUpLeg -61.898799 -11.289905 4.447348
RightLeg 4.436061 -0.000000 -0.000000
RightFoot 22.863431 -3.382989 10.597381
RightToeBase -13.993037 -0.000000 0.000000
LeftUpLeg -87.546974 -35.037410 -47.877321
LeftLeg 118.648685 -0.000000 -0.000000
LeftFoot 7.721724 13.762517 -6.998730
LeftToeBase -16.786540 -0.000000 0.000000
Spine 45.342123 47.595585 25.868061
RightShoulder 6.774642 12.333320 -20.395341
RightArm 85.541969 -45.510185 9.465900
RightForeArm -5.972792 -0.000000 67.151490
RightHand 13.488271 -0.000000 45.061728
RightHandThumb1 -24.326973 -0.000000 -32.862282
LeftShoulder -20.426046 -0.324670 18.889321
LeftArm 9.996350 37.648918 -91.471804
LeftForeArm -4.958146 -0.000000 1.166409
LeftHand -18.962726 -0.000000 56.037926
LeftHandThumb1 -26.253704 0.000000 33.147579
Head -60.660049 64.465148 -55.728370
